{"title":"[ShepardTDS] Highschool of the Dead Dual Audio Uncensored [720p","uid":13203076,"size":2836807332,"categoryP":"video","categoryS":"tv_shows","magnet":"?xt=urn:btih:286bac8b03be27b8ff039a9046188ca4d6c5c607&amp;dn=%5BShepardTDS%5D+Highschool+of+the+Dead+Dual+Audio+Uncensored+%5B720p+&amp;tr=udp%3A%2F%2Ftracker.leechers-paradise.org%3A6969&amp;tr=udp%3A%2F%2Fzer0day.ch%3A1337&amp;tr=udp%3A%2F%2Fopen.demonii.com%3A1337&amp;tr=udp%3A%2F%2Ftracker.coppersurfer.tk%3A6969&amp;tr=udp%3A%2F%2Fexodus.desync.com%3A6969","seeders":1,"leechers":0,"uploader":"ShepardTDS","files":26,"time":1452558051,"description":"http://extraimago.com/images/2015/12/28/101616_s0.jpg\r\n\r\nConstant Quality encoding.\r\nVariable Bit rates\r\nED and OP included\r\nBlu-Ray Source\r\n \nhttp://extraimago.com/images/2015/12/28/sample1.jpg\r\n \nhttp://extraimago.com/images/2015/12/28/sample2.jpg\r\n\r\nGeneral\r\n\r\nFormat : Matroska\r\nFile size : 158 MiB-234 MiB\r\nDuration : 23mn 42s\r\nOverall bit rate : 930 Kbps-1,383 Kbps\r\nEncoded date : UTC 2015-12-09 05:36:33\r\nWriting application : mkvmerge v8.5.2 ('Crosses') 32bit\r\nWriting library : libebml v1.3.3 + libmatroska v1.4.4\r\n\r\nVideo\r\nID : 1\r\nFormat : V_MPEGH/ISO/HEVC\r\nCodec ID : V_MPEGH/ISO/HEVC\r\nDuration : 23mn 42s\r\nBit rate : 528 Kbps-971 Kbps\r\nWidth : 1 280 pixels\r\nHeight : 720 pixels\r\nDisplay aspect ratio : 16:9\r\nFrame rate : 23.976 fps\r\nBits/(Pixel*Frame) : 0.024\r\nStream size : 89.5 MiB (57%)\r\n\r\nAudio #1\r\nID : 2\r\nFormat : AC-3\r\nFormat/Info : Audio Coding 3\r\nMode extension : CM (complete main)\r\nCodec ID : A_AC3\r\nDuration : 23mn 42s\r\nBit rate mode : Constant\r\nBit rate : 192 Kbps\r\nChannel(s) : 6 channels\r\nChannel positions : Front: L C R, Side: L R, LFE\r\nSampling rate : 48.0 KHz\r\nBit depth : 16 bits\r\nCompression mode : Lossy\r\nStream size : 32.6 MiB (21%)\r\nLanguage : English\r\n\r\nAudio #2\r\nID : 3\r\nFormat : AC-3\r\nFormat/Info : Audio Coding 3\r\nMode extension : CM (complete main)\r\nCodec ID : A_AC3\r\nDuration : 23mn 42s\r\nBit rate mode : Constant\r\nBit rate : 192 Kbps\r\nChannel(s) : 2 channels\r\nChannel positions : Front: L R\r\nSampling rate : 48.0 KHz\r\nBit depth : 16 bits\r\nCompression mode : Lossy\r\nStream size : 32.6 MiB (21%)\r\nLanguage : Japanese\r\n\r\nText #1\r\nID : 4\r\nFormat : ASS\r\nCodec ID : S_TEXT/ASS\r\nCodec ID/Info : Advanced Sub Station Alpha\r\nCompression mode : Lossless\r\nTitle : ASS\r\nLanguage : English\r\n\r\nText #2\r\nID : 5\r\nFormat : ASS\r\nCodec ID : S_TEXT/ASS\r\nCodec ID/Info : Advanced Sub Station Alpha\r\nCompression mode : Lossless\r\nTitle : ASS\r\nLanguage : Japanese\r\n\r\nMenu\r\n00:00:00.000 : en:Prologue\r\n00:01:02.000 : en:Opening\r\n00:02:32.000 : en:Part A\r\n00:13:15.300 : en:Part B\r\n00:20:55.800 : en:Closing\r\n00:22:29.000 : en:Epilogue\r\n00:23:24.700 : en:Preview","torrent":{"xt":"urn:btih:286bac8b03be27b8ff039a9046188ca4d6c5c607","amp;dn":"%5BShepardTDS%5D+Highschool+of+the+Dead+Dual+Audio+Uncensored+%5B720p+","amp;tr":["udp%3A%2F%2Ftracker.leechers-paradise.org%3A6969","udp%3A%2F%2Fzer0day.ch%3A1337","udp%3A%2F%2Fopen.demonii.com%3A1337","udp%3A%2F%2Ftracker.coppersurfer.tk%3A6969","udp%3A%2F%2Fexodus.desync.com%3A6969"],"infoHash":"286bac8b03be27b8ff039a9046188ca4d6c5c607","infoHashBuffer":{"type":"Buffer","data":[40,107,172,139,3,190,39,184,255,3,154,144,70,24,140,164,214,197,198,7]},"announce":[],"urlList":[]}}